<svg xmlns="http://www.w3.org/2000/svg" fill="none" viewBox="0 0 80 34" height="34" width="80">
<g clip-path="url(#clip0_398_1975)">
<path fill="#264558" d="M77.1898 32.7284C74.8398 32.7284 73.9467 31.825 73.6228 30.704C73.5279 30.3091 73.4845 29.9037 73.4935 29.4978L73.559 24.0905H72.0231V21.6779H73.5808L73.6228 18.1646H78.0979L78.0761 21.6779H79.9779V24.0905H78.0324L77.967 28.3768C77.967 28.8302 78.0324 29.548 79.1991 29.548C79.4686 29.5538 79.7378 29.5245 79.9997 29.461V32.4992C79.0688 32.6343 78.1303 32.7109 77.1898 32.7284ZM63.5113 27.796C63.5119 28.0864 63.548 28.3758 63.6187 28.6576C63.7319 29.0315 63.9686 29.3564 64.2904 29.5793C64.6122 29.8022 65.0002 29.9102 65.3913 29.8856C66.0829 29.8856 66.4505 29.648 66.667 29.4539C66.9862 29.1717 67.2438 28.8272 67.4241 28.4418L71.0767 29.9709C70.921 30.239 70.74 30.4916 70.5362 30.7255C69.962 31.3852 69.2641 31.9268 68.4816 32.3199C67.4456 32.7976 66.3162 33.0404 65.1748 33.0309C64.2657 33.0487 63.3621 32.8872 62.5159 32.5558C60.2028 31.6088 58.9707 29.3686 58.9707 26.9343C58.9707 24.6289 60.0299 23.2068 60.6778 22.5844C62.2775 21.0536 64.5033 20.9465 65.1311 20.9465C65.8865 20.9465 68.1778 21.0536 69.7993 22.7986C70.342 23.3939 70.7476 24.1002 70.9877 24.8681C71.2899 25.8368 71.3117 26.7838 71.3117 27.7976L63.5113 27.796ZM66.6889 24.823C66.593 24.5111 66.3973 24.2392 66.1318 24.0486C65.8663 23.8579 65.5455 23.7591 65.2184 23.7673C64.9787 23.7746 64.7432 23.8316 64.5268 23.9346C63.7505 24.2811 63.6108 25.1097 63.5624 25.3966L63.5549 25.4403H66.7963C66.7792 25.2317 66.7433 25.0251 66.6889 24.823ZM36.8448 21.4038V32.9817H41.5927V26.369C41.7986 25.919 42.1075 25.5568 42.5194 25.2822C42.9312 25 43.3507 24.8589 43.7778 24.8589C43.9837 24.8589 44.1706 24.8703 44.3384 24.8932C44.5062 24.9161 44.6549 24.9504 44.7846 24.9962V21.2894C44.7159 21.2589 44.5939 21.2246 44.4185 21.1865C44.2507 21.1483 44.0676 21.1293 43.8693 21.1293C43.4041 21.1293 42.9579 21.278 42.5308 21.5755C42.1113 21.8653 41.7872 22.2276 41.5583 22.6623H41.524L41.4783 21.4038H36.8448ZM22.0406 29.5837C22.0406 28.2719 22.5478 27.288 23.5622 26.6321C24.5843 25.9685 25.8847 25.6329 27.4635 25.6253H29.7745V25.099C29.7745 24.7177 29.6791 24.4126 29.4884 24.1838C29.3054 23.955 28.9736 23.8406 28.4931 23.8406C28.0202 23.8406 27.6808 23.9359 27.4749 24.1266C27.2766 24.3173 27.1775 24.569 27.1775 24.8817V25.1219H22.7042V24.8817C22.7042 23.7147 23.2648 22.788 24.386 22.1016C25.5148 21.4152 26.9792 21.072 28.7791 21.072C30.6172 21.072 32.0244 21.4037 33.0007 22.0673C33.9846 22.7232 34.4765 23.7681 34.4765 25.202V30.4532C34.4765 30.9108 34.5223 31.3494 34.6138 31.7689C34.713 32.1807 34.8388 32.5278 34.9913 32.81V32.9816H30.3236C30.2321 32.8061 30.1558 32.5926 30.0948 32.3409C30.0338 32.0892 29.9918 31.8375 29.9689 31.5858C29.7478 31.99 29.2978 32.3561 28.619 32.6841C27.9402 33.0121 27.1088 33.176 26.1249 33.176C24.9199 33.176 23.936 32.8824 23.1733 32.2951C22.4182 31.7078 22.0406 30.804 22.0406 29.5837ZM26.7427 29.149C26.7427 29.5303 26.8457 29.843 27.0516 30.0871C27.2652 30.3235 27.6046 30.4418 28.0698 30.4418C28.5961 30.4418 29.0118 30.2778 29.3168 29.9498C29.6219 29.6219 29.7745 29.1986 29.7745 28.6799V27.9706H28.5274C27.902 27.9706 27.4482 28.0698 27.166 28.2681C26.8838 28.4587 26.7427 28.7524 26.7427 29.149ZM16.0091 26.9513V32.7599L20.4389 32.7565V25.7476V25.7476C20.4389 25.0617 20.4389 24.4607 20.2251 23.818C19.6872 22.1882 18.2892 21.717 17.7296 21.5672C17.2541 21.436 16.761 21.3798 16.268 21.4007C14.4607 21.3791 13.5353 22.0866 13.0192 22.6227C12.7705 22.8574 12.5732 23.1408 12.4396 23.4551C12.2914 23.1462 12.1033 22.8579 11.88 22.5977C10.8043 21.3974 8.95525 21.3974 8.56772 21.3974C7.04103 21.3974 6.11565 21.9751 5.66466 22.4046C5.42583 22.6528 5.22288 22.933 5.06166 23.237V21.6504H0.782227V32.7599H5.23371V26.7365C5.23047 26.5035 5.26661 26.2716 5.34061 26.0506C5.64294 25.1283 6.56665 25.0217 6.86898 25.0217C7.21307 25.0217 8.09502 25.1283 8.35225 26.0722C8.40622 26.2967 8.42815 26.5276 8.41739 26.7581V32.7599H12.8472V26.843C12.8355 26.5915 12.8574 26.3396 12.9123 26.0939C13.1913 25.1066 14.1166 25.0217 14.4607 25.0217C16.0385 25.0217 16.018 26.3495 16.0101 26.8643C16.0096 26.8967 16.0091 26.9258 16.0091 26.9513Z" clip-rule="evenodd" fill-rule="evenodd"></path>
<path fill="url(#paint0_linear_398_1975)" d="M50.9525 15.9738L50.9531 15.9738V8.40855C50.971 7.84865 50.9167 7.28876 50.7913 6.74276C50.6063 5.95569 50.2127 5.16862 49.5892 4.66007C48.4553 3.68791 46.9746 3.66455 46.5343 3.66455C45.3124 3.66455 44.0347 3.98801 43.156 4.86852C42.9328 5.08202 42.7383 5.32364 42.5774 5.58731V3.9898H38.085V15.981H42.829V9.59456C42.829 9.58813 42.829 9.58154 42.829 9.57481C42.8287 9.04939 42.8279 7.62867 44.5648 7.62867C45.652 7.62867 45.9988 8.2073 46.1138 8.62419C46.1719 8.8896 46.1954 9.16139 46.1839 9.43283V15.6413H46.1829V32.9816L50.9525 32.9816V29.9384L51.4467 29.4126L53.9853 32.9816H59.4882L54.4869 26.1779L58.9848 21.3923H53.7908L50.9525 24.6414V15.9738Z" clip-rule="evenodd" fill-rule="evenodd"></path>
<path fill="#3D6E8E" d="M57.6145 16.1426C55.0987 16.1426 54.1427 15.1723 53.7959 13.9683C53.6943 13.5442 53.6478 13.1087 53.6575 12.6727L53.7276 6.86487H52.0834V4.27364H53.751L53.7959 0.5H58.5866L58.5633 4.27364H60.5992V6.86487H58.5165L58.4465 11.4687C58.4465 11.9557 58.5165 12.7266 59.7654 12.7266C60.054 12.7328 60.3421 12.7014 60.6226 12.6332V15.8965C59.626 16.0416 58.6213 16.1238 57.6145 16.1426ZM29.4775 16.4445C32.4623 16.4445 34.2448 15.2405 35.0768 14.3151C36.5126 12.7194 36.6276 10.66 36.6276 10.0095C36.6276 8.22875 35.9574 6.28443 34.615 5.10382C32.8324 3.55662 30.3562 3.48654 29.7327 3.48654C26.8108 3.46318 25.1055 4.66715 24.295 5.54587C23.1611 6.7714 22.6526 8.41563 22.6526 10.0814C22.6526 12.811 23.9949 14.3385 24.8736 15.0321C26.6311 16.4211 28.7839 16.4445 29.4775 16.4445ZM29.5943 6.84148C29.8606 6.83629 30.1259 6.87515 30.3796 6.95649C31.2367 7.25838 31.8153 8.09038 31.8153 9.89094C31.8153 11.2333 31.4685 12.1354 31.0516 12.5505C30.8601 12.7317 30.6342 12.8727 30.3873 12.9653C30.1404 13.0579 29.8775 13.1001 29.6141 13.0896C29.3066 13.096 29.001 13.0404 28.7156 12.926C28.4285 12.8019 28.1802 12.6026 27.9968 12.3492C27.6967 11.9323 27.3948 11.1219 27.3948 9.94306C27.3948 8.71573 27.72 7.90529 28.0902 7.51176C28.2801 7.30102 28.512 7.13247 28.7711 7.01701C29.0302 6.90155 29.3106 6.84175 29.5943 6.84148ZM16.3812 9.71127V15.9809L21.1468 15.9773V8.41206C21.1468 7.6717 21.1468 7.023 20.9167 6.32937C20.3381 4.57013 18.8341 4.06159 18.2321 3.89986C17.7206 3.75825 17.19 3.69762 16.6597 3.72017C14.7154 3.69681 13.7199 4.46052 13.1646 5.03914C12.8971 5.29248 12.6848 5.59837 12.5411 5.93763C12.3817 5.60419 12.1793 5.29306 11.9391 5.01219C10.7818 3.71657 8.79258 3.71657 8.37568 3.71657C6.73325 3.71657 5.73773 4.34012 5.25255 4.80374C4.99562 5.07164 4.77728 5.37405 4.60384 5.70223V3.98971H0V15.9809H4.78893V9.47946C4.78544 9.22797 4.82432 8.97769 4.90394 8.73911C5.22919 7.74358 6.22291 7.62858 6.54816 7.62858C6.91834 7.62858 7.86714 7.74358 8.14388 8.76247C8.20194 9.00473 8.22553 9.25397 8.21396 9.50282V15.9809H12.9795V9.59447C12.967 9.32301 12.9906 9.05108 13.0496 8.78583C13.3497 7.72022 14.3452 7.62858 14.7154 7.62858C16.4128 7.62858 16.3908 9.06174 16.3822 9.61742C16.3817 9.65236 16.3812 9.68384 16.3812 9.71127ZM66.1284 11.7706C66.0527 11.4679 66.0141 11.1572 66.0134 10.8452L74.3639 10.847C74.3639 9.75801 74.3406 8.74092 74.0171 7.70047C73.76 6.87569 73.3258 6.11705 72.7449 5.47762C71.009 3.60338 68.5561 3.48837 67.7475 3.48837C67.0754 3.48837 64.6926 3.60338 62.9801 5.24761C62.2865 5.91608 61.1526 7.44351 61.1526 9.91973C61.1526 12.5343 62.4716 14.9405 64.9478 15.9576C65.8537 16.3135 66.821 16.487 67.7942 16.4679C69.0162 16.4781 70.2252 16.2173 71.3342 15.7042C72.1719 15.282 72.9191 14.7003 73.5337 13.9917C73.7519 13.7405 73.9457 13.4691 74.1124 13.1812L70.2021 11.5388C70.0092 11.9528 69.7333 12.3228 69.3917 12.626C69.1599 12.8344 68.7664 13.0896 68.026 13.0896C67.6073 13.116 67.192 13 66.8475 12.7606C66.503 12.5212 66.2496 12.1723 66.1284 11.7706ZM68.8187 6.8202C69.103 7.02494 69.3124 7.31705 69.4151 7.65196C69.4733 7.86907 69.5118 8.091 69.5301 8.31504H66.0601C66.0626 8.30142 66.0652 8.28569 66.0682 8.26806C66.1199 7.95992 66.2694 7.07 67.1006 6.69777C67.3322 6.58713 67.5843 6.52593 67.8409 6.51807C68.1911 6.50936 68.5345 6.61546 68.8187 6.8202Z" clip-rule="evenodd" fill-rule="evenodd"></path>
</g>
<defs>
<linearGradient gradientUnits="userSpaceOnUse" y2="3.66455" x2="48.7866" y1="32.9816" x1="48.7866" id="paint0_linear_398_1975">
<stop stop-color="#3D6E8E"></stop>
<stop stop-color="#264558" offset="0.97"></stop>
</linearGradient>
<clipPath id="clip0_398_1975">
<rect transform="translate(0 0.5)" fill="white" height="33" width="80"></rect>
</clipPath>
</defs>
</svg>
